<svg width="770" height="347" viewBox="0 0 770 347" fill="none" xmlns="http://www.w3.org/2000/svg">
<path d="M409.314 166.206V219.62H386.72V172.33C386.72 159.402 380.144 152.597 368.679 152.597C364.801 152.597 349.457 152.087 349.457 179.815C349.457 192.743 349.457 219.62 349.457 219.62H327.201V136.097H349.457C349.626 137.117 349.963 138.308 350.469 139.329C350.806 140.179 351.481 140.69 352.155 141.03C352.998 141.37 353.841 141.54 354.684 141.2C356.371 140.86 357.888 140.009 359.406 138.989C365.644 135.416 372.894 133.545 380.144 133.545C382.842 133.545 385.54 133.885 388.238 134.226C391.104 134.736 393.802 135.586 396.5 136.777C398.186 137.628 399.703 138.648 401.221 140.009C403.581 142.051 405.436 144.602 406.616 147.494C407.628 149.705 408.302 152.087 408.639 154.468C408.977 156.68 409.145 158.721 409.314 160.932C409.314 162.804 409.314 164.505 409.314 166.206ZM684.988 174.371C684.988 191.382 682.291 197.846 680.777 201.589C680.1 203.12 679.258 204.65 678.416 206.181C675.719 210.434 672.174 214.006 668.128 216.728C662.904 220.13 656.662 222.002 650.425 221.831C643.682 221.831 637.104 220.47 631.035 217.749C629.855 217.068 628.506 216.728 627.157 216.558C624.965 216.388 622.099 217.068 622.099 223.363C622.099 229.657 622.099 242.074 622.099 242.074H599.842V135.927H622.267C622.436 136.947 622.773 138.138 623.279 139.159C623.617 140.009 624.291 140.52 624.965 140.86C625.809 141.2 626.651 141.2 627.326 141.03C629.012 140.69 630.529 140.009 632.047 138.989C638.287 135.246 645.537 133.375 652.786 133.545C658.687 133.545 664.588 135.246 669.311 138.648C673.187 141.37 676.561 144.772 678.922 148.855C682.968 156.85 685.159 165.526 684.988 174.371ZM660.372 177.773C660.372 156.85 652.451 154.468 648.064 152.938C645.366 152.257 642.669 151.917 639.972 151.917C630.361 151.917 623.617 155.829 623.617 172.84V182.536C623.617 199.377 630.361 203.46 639.972 203.46C642.669 203.46 645.366 203.12 648.064 202.439C652.451 201.419 660.372 198.867 660.372 177.773ZM501.038 115.514H414.203V136.097H437.303C437.809 136.097 438.315 136.097 438.82 136.267C440.844 136.607 442.698 137.798 444.048 139.499C445.396 141.2 446.071 143.411 446.071 145.623V219.62H469.17V145.623C469.17 143.411 469.845 141.2 471.193 139.499C472.543 137.798 474.397 136.607 476.421 136.267C476.926 136.097 477.432 136.097 477.938 136.097H501.038V115.514ZM583.656 174.031C583.656 175.222 583.656 176.412 583.656 177.773C583.656 196.315 577.924 212.306 558.702 218.94C552.969 220.811 547.068 221.831 540.998 221.831C534.928 221.831 529.027 220.811 523.294 218.94C504.072 212.135 498.34 196.315 498.34 177.773C498.34 176.583 498.34 175.392 498.34 174.031C498.677 154.128 508.625 139.329 528.521 134.906C532.736 134.055 536.951 133.545 541.167 133.545C545.382 133.545 549.597 134.055 553.812 134.906C573.371 139.329 583.319 153.958 583.656 174.031ZM559.882 177.603C559.882 165.185 558.196 155.659 546.562 152.597C544.707 152.257 542.853 152.087 540.998 151.917C539.143 151.917 537.289 152.087 535.434 152.597C523.631 155.659 522.114 165.185 522.114 177.603C522.114 181.856 521.945 187.299 523.294 191.042C525.486 198.867 533.242 203.46 540.998 203.46C544.876 203.63 548.754 202.439 551.957 200.228C555.161 198.016 557.521 194.784 558.702 191.042C560.219 187.469 559.882 182.026 559.882 177.603Z" fill="white"/>
<path d="M222.615 150.911C222.615 167.482 209.285 180.807 192.708 180.807C184.847 180.807 177.84 187.982 177.84 195.67V225.566H118.027V165.774H147.934C155.795 165.774 162.802 158.599 162.802 150.911C162.802 134.341 176.132 121.016 192.708 121.016C209.285 121.016 222.615 134.341 222.615 150.911Z" fill="white"/>
<path fill-rule="evenodd" clip-rule="evenodd" d="M195.092 93.5026H145.55C115.149 93.5026 90.5046 118.139 90.5046 148.529V253.079H195.092C225.492 253.079 250.138 228.443 250.138 198.053V148.529C250.138 118.139 225.492 93.5026 195.092 93.5026ZM145.55 88C112.109 88 85 115.1 85 148.529V258.582H195.092C228.533 258.582 255.642 231.482 255.642 198.053V148.529C255.642 115.1 228.533 88 195.092 88H145.55Z" fill="white" fill-opacity="0.35"/>
</svg>
