<svg width="770" height="347" viewBox="0 0 770 347" fill="none" xmlns="http://www.w3.org/2000/svg">
<path d="M222.615 150.911C222.615 167.482 209.285 180.807 192.708 180.807C184.847 180.807 177.84 187.982 177.84 195.67V225.566H118.027V165.774H147.934C155.795 165.774 162.802 158.599 162.802 150.911C162.802 134.341 176.132 121.016 192.708 121.016C209.285 121.016 222.615 134.341 222.615 150.911Z" fill="black"/>
<path fill-rule="evenodd" clip-rule="evenodd" d="M195.092 93.5026H145.55C115.149 93.5026 90.5046 118.139 90.5046 148.529V253.079H195.092C225.492 253.079 250.138 228.443 250.138 198.053V148.529C250.138 118.139 225.492 93.5026 195.092 93.5026ZM145.55 88C112.109 88 85 115.1 85 148.529V258.582H195.092C228.533 258.582 255.642 231.482 255.642 198.053V148.529C255.642 115.1 228.533 88 195.092 88H145.55Z" fill="black" fill-opacity="0.35"/>
<path d="M658.191 177.584C658.191 157.946 651.189 155.726 647.006 154.36L646.835 154.275C644.53 153.507 642.054 153.421 639.151 153.421C630.186 153.421 624.209 156.751 624.209 172.803V182.451C624.209 199.527 631.381 201.832 639.151 201.832C641.456 201.832 644.188 201.746 646.835 200.978C648.884 200.38 651.702 199.527 653.922 196.368C656.739 192.611 658.191 186.293 658.191 177.584ZM685 174.083C685 191.074 682.353 197.477 680.731 201.32V201.405C679.877 203.625 678.426 206.016 678.34 206.101C674.669 212.334 668.18 216.603 667.753 216.859C662.545 220.359 656.227 222.152 649.482 222.152C646.067 222.152 637.272 221.726 629.588 218.054C628.222 217.371 627.112 217.115 626.088 217.03C625.063 216.944 624.295 217.115 623.697 217.713C622.843 218.566 622.331 220.274 622.331 222.665C622.245 228.471 622.331 241.021 622.331 241.107V242.302H597.827V135.235H622.245L622.502 136.174C622.672 136.943 623.099 138.48 623.441 139.077C624.038 140.187 624.721 140.443 626.429 140.273C627.71 140.102 628.82 139.419 630.015 138.736C630.186 138.65 630.442 138.48 630.613 138.394C639.578 132.588 651.275 132.759 651.872 132.844C658.105 132.844 664.082 134.723 669.034 138.138C669.461 138.48 675.523 142.492 679.023 148.554C680.389 150.945 685 159.995 685 174.083ZM557.186 190.391L557.271 190.22C558.466 187.317 558.466 182.707 558.381 178.95C558.381 178.438 558.381 177.925 558.381 177.413C558.381 164.606 556.332 156.666 546.001 154.019C544.208 153.677 542.415 153.507 540.622 153.421C538.914 153.421 537.121 153.592 535.328 154.019C524.997 156.666 522.948 164.606 522.948 177.413C522.948 177.84 522.948 178.267 522.948 178.694C522.948 182.451 522.948 187.232 524.143 190.22V190.306C525.083 193.635 527.302 196.538 530.376 198.587C533.364 200.551 536.95 201.576 540.622 201.576C540.707 201.576 540.707 201.576 540.792 201.576C544.378 201.576 547.964 200.551 550.867 198.587C554.026 196.624 556.161 193.721 557.186 190.391ZM584.337 173.742C584.422 175.022 584.422 176.303 584.422 177.498C584.422 187.829 582.629 196.111 579.043 202.771C574.859 210.541 568.029 216.09 558.722 219.249C553.087 221.128 546.855 222.152 540.707 222.152C534.56 222.067 528.327 221.128 522.692 219.249C513.385 216.005 506.555 210.455 502.371 202.771C498.785 196.111 496.992 187.829 496.992 177.498C496.992 176.303 496.992 175.022 497.078 173.742C497.248 163.496 499.981 154.787 505.018 148.042C510.312 140.956 518.081 136.26 527.9 134.04C532.084 133.101 536.438 132.674 540.707 132.674C544.976 132.674 549.245 133.101 553.514 134.04C563.418 136.26 571.103 140.956 576.396 148.042C581.434 154.873 584.166 163.496 584.337 173.742ZM410.161 154.702C409.904 152.311 409.136 149.835 408.026 147.445C406.575 144.2 404.696 141.639 402.391 139.59C400.769 138.223 399.232 137.114 397.439 136.26C394.877 135.064 391.974 134.125 388.986 133.613C386.596 133.186 384.034 132.93 380.79 132.93C380.277 132.93 368.495 132.588 359.445 138.394C359.103 138.565 358.847 138.736 358.505 138.907C357.395 139.59 356.371 140.187 355.261 140.358C353.639 140.529 352.956 140.273 352.273 139.077C352.016 138.48 351.59 136.943 351.333 136.174L351.077 135.235H327V219.932H351.504V218.737C351.504 218.481 351.419 192.098 351.504 179.462C351.504 169.302 353.639 162.13 357.822 157.946C361.921 153.848 367.043 153.848 369.178 153.848H369.349C380.277 153.848 385.998 160.166 385.998 172.119V219.932H410.844V166.143C410.844 164.35 410.844 162.642 410.758 161.02C410.587 158.971 410.417 156.836 410.161 154.702ZM502.115 137.626H477.953C477.44 137.626 477.013 137.626 476.586 137.711C474.793 138.053 473.342 138.992 472.061 140.443C470.951 141.809 470.354 143.602 470.354 145.737V219.847H444.996V145.737C444.996 143.602 444.483 141.809 443.288 140.443C442.093 138.992 440.556 138.053 438.763 137.711C438.336 137.626 437.909 137.626 437.397 137.626H413.234V115H502.03V137.626H502.115Z" fill="black"/>
</svg>
